<?xml version="1.0" encoding="UTF-8"?>
<svg xmlns="http://www.w3.org/2000/svg" viewBox="0 0 100 100" fill="none">
  <defs>
    <linearGradient id="goldGradient" x1="0%" y1="0%" x2="100%" y2="100%">
      <stop offset="0%" stop-color="#FFD700"/>
      <stop offset="30%" stop-color="#FFA500"/>
      <stop offset="70%" stop-color="#FF8C00"/>
      <stop offset="100%" stop-color="#DAA520"/>
    </linearGradient>
    <linearGradient id="gemGradient1" x1="0%" y1="0%" x2="100%" y2="100%">
      <stop offset="0%" stop-color="#FF6B9D"/>
      <stop offset="100%" stop-color="#E91E63"/>
    </linearGradient>
    <linearGradient id="gemGradient2" x1="0%" y1="0%" x2="100%" y2="100%">
      <stop offset="0%" stop-color="#4ECDC4"/>
      <stop offset="100%" stop-color="#26A69A"/>
    </linearGradient>
  </defs>
  
  <!-- Main outer bangle -->
  <circle cx="50" cy="50" r="40" fill="none" stroke="url(#goldGradient)" stroke-width="6" opacity="0.9"/>
  
  <!-- Inner decorative ring -->
  <circle cx="50" cy="50" r="32" fill="none" stroke="url(#goldGradient)" stroke-width="2" opacity="0.7"/>
  
  <!-- Another inner ring -->
  <circle cx="50" cy="50" r="25" fill="none" stroke="url(#goldGradient)" stroke-width="1.5" opacity="0.5"/>
  
  <!-- Decorative gems at cardinal points -->
  <circle cx="50" cy="10" r="4" fill="url(#gemGradient1)"/>
  <circle cx="90" cy="50" r="4" fill="url(#gemGradient2)"/>
  <circle cx="50" cy="90" r="4" fill="url(#gemGradient1)"/>
  <circle cx="10" cy="50" r="4" fill="url(#gemGradient2)"/>
  
  <!-- Smaller decorative gems -->
  <circle cx="70.7" cy="29.3" r="2.5" fill="url(#goldGradient)"/>
  <circle cx="70.7" cy="70.7" r="2.5" fill="url(#goldGradient)"/>
  <circle cx="29.3" cy="70.7" r="2.5" fill="url(#goldGradient)"/>
  <circle cx="29.3" cy="29.3" r="2.5" fill="url(#goldGradient)"/>
  
  <!-- Central decorative pattern -->
  <circle cx="50" cy="50" r="8" fill="none" stroke="url(#goldGradient)" stroke-width="1" opacity="0.6"/>
  <circle cx="50" cy="50" r="3" fill="url(#goldGradient)" opacity="0.8"/>
  
  <!-- Tiny sparkle effects -->
  <circle cx="60" cy="40" r="1" fill="#FFD700" opacity="0.9"/>
  <circle cx="40" cy="60" r="1" fill="#FFD700" opacity="0.9"/>
  <circle cx="60" cy="60" r="1" fill="#FFD700" opacity="0.9"/>
  <circle cx="40" cy="40" r="1" fill="#FFD700" opacity="0.9"/>
</svg>
